<svg xmlns="http://www.w3.org/2000/svg" xmlns:xlink="http://www.w3.org/1999/xlink" width="500" zoomAndPan="magnify" viewBox="0 0 375 374.999991" height="500" preserveAspectRatio="xMidYMid meet" version="1.0"><defs><clipPath id="ce5acf5633"><path d="M 10.632812 10.632812 L 364.632812 10.632812 L 364.632812 364.632812 L 10.632812 364.632812 Z M 10.632812 10.632812 " clip-rule="nonzero"/></clipPath><clipPath id="3a588b76f8"><path d="M 105.796875 10.632812 L 269.203125 10.632812 C 270.757812 10.632812 272.316406 10.671875 273.871094 10.75 C 275.425781 10.824219 276.980469 10.941406 278.53125 11.09375 C 280.078125 11.246094 281.625 11.4375 283.164062 11.664062 C 284.707031 11.894531 286.238281 12.160156 287.765625 12.460938 C 289.292969 12.765625 290.8125 13.109375 292.324219 13.484375 C 293.835938 13.863281 295.335938 14.28125 296.828125 14.730469 C 298.316406 15.183594 299.796875 15.671875 301.261719 16.195312 C 302.726562 16.722656 304.179688 17.28125 305.621094 17.878906 C 307.058594 18.472656 308.480469 19.105469 309.890625 19.769531 C 311.296875 20.4375 312.6875 21.136719 314.0625 21.871094 C 315.433594 22.605469 316.789062 23.371094 318.125 24.171875 C 319.460938 24.972656 320.777344 25.808594 322.070312 26.671875 C 323.367188 27.539062 324.640625 28.433594 325.890625 29.363281 C 327.140625 30.289062 328.367188 31.246094 329.574219 32.234375 C 330.777344 33.222656 331.957031 34.238281 333.109375 35.285156 C 334.261719 36.332031 335.390625 37.40625 336.492188 38.507812 C 337.59375 39.609375 338.667969 40.734375 339.710938 41.890625 C 340.757812 43.042969 341.777344 44.222656 342.765625 45.425781 C 343.75 46.628906 344.710938 47.859375 345.636719 49.109375 C 346.566406 50.359375 347.460938 51.632812 348.328125 52.925781 C 349.191406 54.222656 350.023438 55.539062 350.824219 56.875 C 351.625 58.210938 352.394531 59.5625 353.128906 60.9375 C 353.863281 62.3125 354.5625 63.703125 355.226562 65.109375 C 355.894531 66.515625 356.523438 67.941406 357.121094 69.378906 C 357.714844 70.820312 358.277344 72.269531 358.800781 73.738281 C 359.328125 75.203125 359.816406 76.683594 360.265625 78.171875 C 360.71875 79.664062 361.132812 81.164062 361.511719 82.675781 C 361.890625 84.183594 362.230469 85.703125 362.535156 87.230469 C 362.839844 88.757812 363.105469 90.292969 363.335938 91.832031 C 363.5625 93.375 363.753906 94.917969 363.90625 96.46875 C 364.058594 98.019531 364.171875 99.570312 364.25 101.128906 C 364.328125 102.683594 364.363281 104.238281 364.363281 105.796875 L 364.363281 269.203125 C 364.363281 270.757812 364.328125 272.316406 364.25 273.871094 C 364.171875 275.425781 364.058594 276.980469 363.90625 278.53125 C 363.753906 280.078125 363.5625 281.625 363.335938 283.164062 C 363.105469 284.707031 362.839844 286.238281 362.535156 287.765625 C 362.230469 289.292969 361.890625 290.8125 361.511719 292.324219 C 361.132812 293.835938 360.71875 295.335938 360.265625 296.828125 C 359.816406 298.316406 359.328125 299.796875 358.800781 301.261719 C 358.277344 302.726562 357.714844 304.179688 357.121094 305.621094 C 356.523438 307.058594 355.894531 308.480469 355.226562 309.890625 C 354.5625 311.296875 353.863281 312.6875 353.128906 314.0625 C 352.394531 315.433594 351.625 316.789062 350.824219 318.125 C 350.023438 319.460938 349.191406 320.777344 348.328125 322.070312 C 347.460938 323.367188 346.566406 324.640625 345.636719 325.890625 C 344.710938 327.140625 343.75 328.367188 342.765625 329.574219 C 341.777344 330.777344 340.757812 331.957031 339.710938 333.109375 C 338.667969 334.261719 337.59375 335.390625 336.492188 336.492188 C 335.390625 337.59375 334.261719 338.667969 333.109375 339.710938 C 331.957031 340.757812 330.777344 341.777344 329.574219 342.765625 C 328.367188 343.75 327.140625 344.710938 325.890625 345.636719 C 324.640625 346.566406 323.367188 347.460938 322.070312 348.328125 C 320.777344 349.191406 319.460938 350.023438 318.125 350.824219 C 316.789062 351.625 315.433594 352.394531 314.0625 353.128906 C 312.6875 353.863281 311.296875 354.5625 309.890625 355.226562 C 308.480469 355.894531 307.058594 356.523438 305.621094 357.121094 C 304.179688 357.714844 302.726562 358.277344 301.261719 358.800781 C 299.796875 359.328125 298.316406 359.816406 296.828125 360.265625 C 295.335938 360.71875 293.835938 361.132812 292.324219 361.511719 C 290.8125 361.890625 289.292969 362.230469 287.765625 362.535156 C 286.238281 362.839844 284.707031 363.105469 283.164062 363.335938 C 281.625 363.5625 280.078125 363.753906 278.53125 363.90625 C 276.980469 364.058594 275.425781 364.171875 273.871094 364.25 C 272.316406 364.328125 270.757812 364.363281 269.203125 364.363281 L 105.796875 364.363281 C 104.238281 364.363281 102.683594 364.328125 101.128906 364.25 C 99.570312 364.171875 98.019531 364.058594 96.46875 363.90625 C 94.917969 363.753906 93.375 363.5625 91.832031 363.335938 C 90.292969 363.105469 88.757812 362.839844 87.230469 362.535156 C 85.703125 362.230469 84.183594 361.890625 82.675781 361.511719 C 81.164062 361.132812 79.664062 360.71875 78.171875 360.265625 C 76.683594 359.816406 75.203125 359.328125 73.738281 358.800781 C 72.269531 358.277344 70.820312 357.714844 69.378906 357.121094 C 67.941406 356.523438 66.515625 355.894531 65.109375 355.226562 C 63.703125 354.5625 62.3125 353.863281 60.9375 353.128906 C 59.5625 352.394531 58.210938 351.625 56.875 350.824219 C 55.539062 350.023438 54.222656 349.191406 52.925781 348.328125 C 51.632812 347.460938 50.359375 346.566406 49.109375 345.636719 C 47.859375 344.710938 46.628906 343.75 45.425781 342.765625 C 44.222656 341.777344 43.042969 340.757812 41.890625 339.710938 C 40.734375 338.667969 39.609375 337.59375 38.507812 336.492188 C 37.40625 335.390625 36.332031 334.261719 35.285156 333.109375 C 34.238281 331.957031 33.222656 330.777344 32.234375 329.574219 C 31.246094 328.367188 30.289062 327.140625 29.363281 325.890625 C 28.433594 324.640625 27.539062 323.367188 26.671875 322.070312 C 25.808594 320.777344 24.972656 319.460938 24.171875 318.125 C 23.371094 316.789062 22.605469 315.433594 21.871094 314.0625 C 21.136719 312.6875 20.4375 311.296875 19.769531 309.890625 C 19.105469 308.480469 18.472656 307.058594 17.878906 305.621094 C 17.28125 304.179688 16.722656 302.726562 16.195312 301.261719 C 15.671875 299.796875 15.183594 298.316406 14.730469 296.828125 C 14.28125 295.335938 13.863281 293.835938 13.484375 292.324219 C 13.109375 290.8125 12.765625 289.292969 12.460938 287.765625 C 12.160156 286.238281 11.894531 284.707031 11.664062 283.164062 C 11.4375 281.625 11.246094 280.078125 11.09375 278.53125 C 10.941406 276.980469 10.824219 275.425781 10.75 273.871094 C 10.671875 272.316406 10.632812 270.757812 10.632812 269.203125 L 10.632812 105.796875 C 10.632812 104.238281 10.671875 102.683594 10.75 101.128906 C 10.824219 99.570312 10.941406 98.019531 11.09375 96.46875 C 11.246094 94.917969 11.4375 93.375 11.664062 91.832031 C 11.894531 90.292969 12.160156 88.757812 12.460938 87.230469 C 12.765625 85.703125 13.109375 84.183594 13.484375 82.675781 C 13.863281 81.164062 14.28125 79.664062 14.730469 78.171875 C 15.183594 76.683594 15.671875 75.203125 16.195312 73.738281 C 16.722656 72.269531 17.28125 70.820312 17.878906 69.378906 C 18.472656 67.941406 19.105469 66.515625 19.769531 65.109375 C 20.4375 63.703125 21.136719 62.3125 21.871094 60.9375 C 22.605469 59.5625 23.371094 58.210938 24.171875 56.875 C 24.972656 55.539062 25.808594 54.222656 26.671875 52.925781 C 27.539062 51.632812 28.433594 50.359375 29.363281 49.109375 C 30.289062 47.859375 31.246094 46.628906 32.234375 45.425781 C 33.222656 44.222656 34.238281 43.042969 35.285156 41.890625 C 36.332031 40.734375 37.40625 39.609375 38.507812 38.507812 C 39.609375 37.40625 40.734375 36.332031 41.890625 35.285156 C 43.042969 34.238281 44.222656 33.222656 45.425781 32.234375 C 46.628906 31.246094 47.859375 30.289062 49.109375 29.363281 C 50.359375 28.433594 51.632812 27.539062 52.925781 26.671875 C 54.222656 25.808594 55.539062 24.972656 56.875 24.171875 C 58.210938 23.371094 59.5625 22.605469 60.9375 21.871094 C 62.3125 21.136719 63.703125 20.4375 65.109375 19.769531 C 66.515625 19.105469 67.941406 18.472656 69.378906 17.878906 C 70.820312 17.28125 72.269531 16.722656 73.738281 16.195312 C 75.203125 15.671875 76.683594 15.183594 78.171875 14.730469 C 79.664062 14.28125 81.164062 13.863281 82.675781 13.484375 C 84.183594 13.109375 85.703125 12.765625 87.230469 12.460938 C 88.757812 12.160156 90.292969 11.894531 91.832031 11.664062 C 93.375 11.4375 94.917969 11.246094 96.46875 11.09375 C 98.019531 10.941406 99.570312 10.824219 101.128906 10.75 C 102.683594 10.671875 104.238281 10.632812 105.796875 10.632812 Z M 105.796875 10.632812 " clip-rule="nonzero"/></clipPath><clipPath id="cfd3dfa3bf"><path d="M 47 82 L 337.246094 82 L 337.246094 296 L 47 296 Z M 47 82 " clip-rule="nonzero"/></clipPath></defs><g clip-path="url(#ce5acf5633)"><g clip-path="url(#3a588b76f8)"><path fill="#000000" d="M 10.632812 364.363281 L 364.363281 364.363281 L 364.363281 10.632812 L 10.632812 10.632812 Z M 10.632812 364.363281 " fill-opacity="1" fill-rule="nonzero"/></g></g><g clip-path="url(#cfd3dfa3bf)"><path fill="#ffffff" d="M 335.199219 134.816406 C 333.320312 130.761719 329.734375 127.296875 325.328125 126.414062 C 320.921875 125.535156 315.867188 127.707031 314.164062 131.820312 C 312.578125 135.699219 314.046875 140.105469 314.398438 144.335938 C 314.988281 151.210938 312.167969 158.261719 307.289062 163.082031 C 305.292969 159.789062 303.058594 156.675781 300.710938 153.621094 C 297.183594 149.097656 293.304688 144.867188 289.191406 140.929688 C 283.375 135.347656 263.925781 126.828125 263.925781 126.828125 C 262.515625 113.898438 260.34375 104.441406 257.640625 97.625 C 245.710938 67.480469 223.441406 89.632812 213.394531 102.03125 C 210.222656 105.96875 208.285156 108.847656 208.285156 108.847656 C 203.289062 105.320312 198.058594 102.558594 192.59375 100.445312 C 153.757812 85.167969 106.925781 101.503906 106.925781 101.503906 C 52.578125 49.972656 62.800781 140.929688 62.800781 140.929688 L 54.222656 162.609375 C 53.398438 166.136719 52.578125 169.71875 51.753906 173.246094 C 50.695312 178.238281 49.757812 183.292969 48.933594 188.289062 C 47.757812 195.867188 47.054688 203.503906 47.171875 211.203125 C 47.40625 229.535156 52.695312 248.511719 65.269531 261.851562 C 65.796875 262.378906 66.324219 262.96875 66.855469 263.496094 C 78.488281 274.835938 94.46875 280.710938 110.21875 284.941406 C 150.113281 295.695312 192.300781 297.988281 233.136719 291.640625 C 237.78125 290.9375 242.480469 290.054688 247.0625 289.054688 C 265.335938 285.003906 283.023438 278.128906 296.539062 265.496094 C 297.183594 264.90625 297.832031 264.320312 298.417969 263.671875 C 309.640625 252.390625 316.925781 237.351562 319.570312 221.601562 C 320.6875 215.082031 320.980469 208.5 320.453125 201.917969 C 319.980469 195.808594 318.75 189.875 316.925781 184.117188 C 328.382812 175.773438 336.140625 162.257812 337.082031 148.039062 C 337.433594 143.515625 337.082031 138.871094 335.199219 134.816406 Z M 335.199219 134.816406 " fill-opacity="1" fill-rule="nonzero"/></g><path fill="#ffffff" d="M 251.648438 107.4375 C 249.296875 116.839844 253.761719 127.121094 250.765625 136.34375 C 247.59375 146.15625 236.722656 151.5625 226.441406 152.5625 C 216.15625 153.5625 205.875 151.210938 195.535156 150.800781 C 185.191406 150.449219 173.910156 152.5625 167.210938 160.378906 C 161.6875 166.839844 160.457031 175.714844 158.164062 183.996094 C 157.753906 185.40625 157.339844 186.875 156.8125 188.226562 C 148.410156 211.789062 118.914062 225.246094 95.585938 216.136719 C 79.3125 209.792969 68.03125 195.101562 57.570312 181.058594 C 55.632812 178.476562 53.75 175.890625 51.8125 173.304688 C 52.578125 169.71875 53.398438 166.195312 54.28125 162.667969 L 62.859375 140.988281 C 62.859375 140.988281 52.636719 50.03125 106.984375 101.503906 C 106.984375 101.503906 153.816406 85.167969 192.65625 100.445312 C 198.117188 102.558594 203.347656 105.320312 208.34375 108.847656 C 208.34375 108.847656 210.28125 105.910156 213.453125 102.03125 C 223.441406 89.632812 245.769531 67.480469 257.699219 97.625 C 254.761719 100.210938 252.585938 103.617188 251.648438 107.4375 Z M 251.648438 107.4375 " fill-opacity="1" fill-rule="nonzero"/><path fill="#000000" d="M 113.332031 174.066406 C 113.332031 180.238281 108.335938 185.230469 102.167969 185.230469 C 96 185.230469 91.003906 180.238281 91.003906 174.066406 C 91.003906 167.898438 96 162.902344 102.167969 162.902344 C 108.335938 162.902344 113.332031 167.898438 113.332031 174.066406 Z M 206.519531 162.902344 C 200.351562 162.902344 195.355469 167.898438 195.355469 174.066406 C 195.355469 180.238281 200.351562 185.230469 206.519531 185.230469 C 212.691406 185.230469 217.683594 180.238281 217.683594 174.066406 C 217.683594 167.898438 212.691406 162.902344 206.519531 162.902344 Z M 163.511719 185.40625 C 165.976562 184.996094 168.269531 183.585938 169.679688 181.53125 C 171.148438 179.472656 171.679688 176.886719 171.265625 174.421875 C 171.207031 174.066406 170.855469 173.773438 170.503906 173.890625 C 170.148438 173.949219 169.914062 174.304688 169.972656 174.65625 C 170.328125 176.769531 169.855469 179.003906 168.621094 180.765625 C 167.386719 182.527344 165.390625 183.761719 163.335938 184.054688 C 160.691406 184.46875 157.753906 183.46875 155.871094 181.414062 C 154.050781 179.414062 153.285156 176.242188 153.875 173.480469 C 153.933594 173.128906 153.699219 172.773438 153.34375 172.65625 C 152.992188 172.597656 152.640625 172.832031 152.523438 173.1875 C 151.816406 176.359375 152.757812 180.003906 154.875 182.292969 C 156.695312 184.292969 159.398438 185.464844 162.101562 185.464844 C 162.511719 185.527344 163.039062 185.527344 163.511719 185.40625 Z M 150.054688 183.527344 C 152.757812 181.117188 154.109375 177.183594 153.582031 173.304688 C 153.523438 172.953125 153.167969 172.65625 152.816406 172.714844 C 152.464844 172.773438 152.171875 173.128906 152.230469 173.480469 C 152.699219 176.886719 151.523438 180.355469 149.113281 182.527344 C 146.648438 184.761719 142.828125 185.347656 140.007812 183.9375 C 137.070312 182.46875 135.484375 178.828125 136.480469 175.832031 C 136.601562 175.476562 136.421875 175.066406 136.070312 174.949219 C 135.71875 174.832031 135.308594 175.007812 135.191406 175.359375 C 133.957031 178.945312 135.835938 183.292969 139.359375 185.113281 C 140.59375 185.761719 141.945312 186.054688 143.355469 186.054688 C 145.765625 186.054688 148.175781 185.171875 150.054688 183.527344 Z M 150.054688 183.527344 " fill-opacity="1" fill-rule="nonzero"/><path fill="#ffffff" d="M 319.6875 221.542969 C 317.042969 237.289062 309.816406 252.332031 298.535156 263.613281 C 297.949219 264.261719 297.300781 264.847656 296.65625 265.4375 C 283.082031 278.070312 265.394531 284.941406 247.179688 288.996094 C 246.945312 288.761719 246.710938 288.527344 246.476562 288.292969 C 239.367188 280.890625 237.957031 267.140625 246.242188 261.027344 C 253.527344 255.566406 264.867188 258.089844 271.800781 252.214844 C 281.496094 243.988281 275.328125 227.183594 281.964844 216.316406 C 285.257812 211.027344 291.484375 207.851562 297.652344 207.792969 C 303.882812 207.734375 309.933594 210.496094 314.398438 214.84375 C 316.457031 216.785156 318.160156 219.074219 319.6875 221.542969 Z M 319.6875 221.542969 " fill-opacity="1" fill-rule="nonzero"/></svg>