<svg xmlns="http://www.w3.org/2000/svg" width="24" height="24" viewBox="0 0 24 24" fill="none" stroke="currentColor" stroke-width="2" stroke-linecap="round" stroke-linejoin="round" class="lucide lucide-cat"><path d="M12 5c.67 0 1.35.09 2 .26 1.78.47 3.34 1.47 4.5 3.04A9 9 0 0 1 21 15.32V16a5 5 0 0 1-5 5h-2a5 5 0 0 1-5-5v-.68A9 9 0 0 1 4.5 8.3C5.66 6.73 7.22 5.73 9 5.26c.65-.17 1.33-.26 2-.26Z"/><path d="M7 14a1 1 0 0 0-1 1v0a1 1 0 0 0 1 1v0a1 1 0 0 0 1-1v0a1 1 0 0 0-1-1Z"/><path d="M15 14a1 1 0 0 0-1 1v0a1 1 0 0 0 1 1v0a1 1 0 0 0 1-1v0a1 1 0 0 0-1-1Z"/></svg>


